<svg xmlns="http://www.w3.org/2000/svg" width="264" height="299"><path fill="#cfd5d1" stroke="#cfd5d1" d="m97.5 4 16.5.5-16.5.5z" data-index="0"/><path fill="#cfd5d1" stroke="#cfd5d1" d="m92.5 5 2.5.5-2.5.5z" data-index="1"/><path fill="#cfd5d1" stroke="#cfd5d1" d="m116.5 5 2.5.5-2.5.5z" data-index="2"/><path fill="#cfd5d1" stroke="#cfd5d1" d="m62.5 15-1 2z" data-index="3"/><path fill="#cfd5d1" stroke="#cfd5d1" d="m242.5 18 1 2z" data-index="4"/><path fill="#cfd5d1" stroke="#cfd5d1" d="m55.5 19-1 2z" data-index="5"/><path fill="#cfd5d1" stroke="#cfd5d1" d="m151.5 19 2 3z" data-index="6"/><path fill="#cfd5d1" stroke="#cfd5d1" d="m52.5 21-2 3z" data-index="7"/><path fill="#cfd5d1" stroke="#cfd5d1" d="m93.5 23 3.5.5-3.5.5z" data-index="8"/><path fill="#cfd5d1" stroke="#cfd5d1" d="m105.5 23 2.5.5-2.5.5z" data-index="9"/><path fill="#cfd5d1" stroke="#cfd5d1" d="m47.5 25-1 2z" data-index="10"/><path fill="#cfd5d1" stroke="#cfd5d1" d="m157.5 25 3 4z" data-index="11"/><path fill="#cfd5d1" stroke="#cfd5d1" d="m68.5 31-1 2z" data-index="12"/><path fill="#cfd5d1" stroke="#cfd5d1" d="m131.5 31 1 2z" data-index="13"/><path fill="#cfd5d1" stroke="#cfd5d1" d="m134.5 33 1 2z" data-index="14"/><path fill="#cfd5d1" stroke="#cfd5d1" d="m62.5 35-1 2z" data-index="15"/><path fill="#cfd5d1" stroke="#cfd5d1" d="m35.5 37-2 3z" data-index="16"/><path fill="#cfd5d1" stroke="#cfd5d1" d="m58.5 38-6 7z" data-index="17"/><path fill="#cfd5d1" stroke="#cfd5d1" d="m31.5 42-1 2z" data-index="18"/><path fill="#cfd5d1" stroke="#cfd5d1" d="m143.5 42 1 2z" data-index="19"/><path fill="#cfd5d1" stroke="#cfd5d1" d="m28.5 46-1 2z" data-index="20"/><path fill="#cfd5d1" stroke="#cfd5d1" d="m91.5 46 13.5.5-13.5.5z" data-index="21"/><path fill="#cfd5d1" stroke="#cfd5d1" d="m131.5 46 1 2z" data-index="22"/><path fill="#cfd5d1" stroke="#cfd5d1" d="m107.5 47 2.5.5-2.5.5z" data-index="23"/><path fill="#cfd5d1" stroke="#cfd5d1" d="m48.5 49-1 2z" data-index="24"/><path fill="#cfd5d1" stroke="#cfd5d1" d="m135.5 49 1.5 3.5h-1z" data-index="25"/><path fill="#cfd5d1" stroke="#cfd5d1" d="m25.5 51-1 2z" data-index="26"/><path fill="#cfd5d1" stroke="#cfd5d1" d="m46.5 52-1 2z" data-index="27"/><path fill="#cfd5d1" stroke="#cfd5d1" d="m73.5 53-1 2z" data-index="28"/><path fill="#cfd5d1" stroke="#cfd5d1" d="m172.5 55 33.5.5-33.5.5z" data-index="29"/><path fill="#cfd5d1" stroke="#cfd5d1" d="m69.5 56-8 9z" data-index="30"/><path fill="#cfd5d1" stroke="#cfd5d1" d="m135.5 56 .5 2.5h-1z" data-index="31"/><path fill="#cfd5d1" stroke="#cfd5d1" d="m42.5 59-1 2z" data-index="32"/><path fill="#cfd5d1" stroke="#cfd5d1" d="m134.5 61 .5 2.5h-1z" data-index="33"/><path fill="#cfd5d1" stroke="#cfd5d1" d="m152.5 62 .5 2.5h-1z" data-index="34"/><path fill="#cfd5d1" stroke="#cfd5d1" d="m60.5 66-1 2z" data-index="35"/><path fill="#cfd5d1" stroke="#cfd5d1" d="M108.5 66q2.3.8 1.5 4.5h-1z" data-index="36"/><path fill="#cfd5d1" stroke="#cfd5d1" d="m153.5 66 .5 21.5h-1z" data-index="37"/><path fill="#cfd5d1" stroke="#cfd5d1" d="m81.5 71-1 2z" data-index="38"/><path fill="#cfd5d1" stroke="#cfd5d1" d="m56.5 73-1 2z" data-index="39"/><path fill="#cfd5d1" stroke="#cfd5d1" d="m108.5 74 .5 2.5h-1z" data-index="40"/><path fill="#cfd5d1" stroke="#cfd5d1" d="m132.5 75 .5 3.5h-1z" data-index="41"/><path fill="#cfd5d1" stroke="#cfd5d1" d="m107.5 78 .5 2.5h-1z" data-index="42"/><path fill="#cfd5d1" stroke="#cfd5d1" d="m131.5 81 .5 2.5h-1z" data-index="43"/><path fill="#cfd5d1" stroke="#cfd5d1" d="m173 84 33 .5-31.5.5-1 1z" data-index="44"/><path fill="#cfd5d1" stroke="#cfd5d1" d="m33.5 85 .5 2.5h-1z" data-index="45"/><path fill="#cfd5d1" stroke="#cfd5d1" d="m130.5 88 .5 2.5h-1z" data-index="46"/><path fill="#cfd5d1" stroke="#cfd5d1" d="m50.5 89 .5 2.5h-1z" data-index="47"/><path fill="#cfd5d1" stroke="#cfd5d1" d="m152.5 90 .5 2.5h-1z" data-index="48"/><path fill="#cfd5d1" stroke="#cfd5d1" d="m11.5 92 .5 4.5h-1z" data-index="49"/><path fill="#cfd5d1" stroke="#cfd5d1" d="m73.5 92 .5 17.5h-1z" data-index="50"/><path fill="#cfd5d1" stroke="#cfd5d1" d="m32.5 95 .5 13.5h-1z" data-index="51"/><path fill="#cfd5d1" stroke="#cfd5d1" d="m49.5 95 .5 4.5h-1z" data-index="52"/><path fill="#cfd5d1" stroke="#cfd5d1" d="m129.5 97 .5 2.5h-1z" data-index="53"/><path fill="#cfd5d1" stroke="#cfd5d1" d="m10.5 103 .5 7.5h-1z" data-index="54"/><path fill="#cfd5d1" stroke="#cfd5d1" d="m128.5 105 .5 9.5h-1z" data-index="55"/><path fill="#cfd5d1" stroke="#cfd5d1" d="m49.5 109 .5 5.5h-1z" data-index="56"/><path fill="#cfd5d1" stroke="#cfd5d1" d="m142.5 114-1 2z" data-index="57"/><path fill="#cfd5d1" stroke="#cfd5d1" d="m11.5 116 .5 4.5h-1z" data-index="58"/><path fill="#cfd5d1" stroke="#cfd5d1" d="m93.5 116-1 2z" data-index="59"/><path fill="#cfd5d1" stroke="#cfd5d1" d="m160.5 119-1 2z" data-index="60"/><path fill="#cfd5d1" stroke="#cfd5d1" d="m136.5 120-1 2z" data-index="61"/><path fill="#cfd5d1" stroke="#cfd5d1" d="m78.5 121 1 2z" data-index="62"/><path fill="#cfd5d1" stroke="#cfd5d1" d="m169 121 39 .5-38 .5-.5 28z" data-index="63"/><path fill="#cfd5d1" stroke="#cfd5d1" d="m81.5 123 3.5.5-3.5.5z" data-index="64"/><path fill="#cfd5d1" stroke="#cfd5d1" d="m157.5 123-9 10z" data-index="65"/><path fill="#cfd5d1" stroke="#cfd5d1" d="M104.5 128q2.3-.7 1.5 1.5h-3z" data-index="66"/><path fill="#cfd5d1" stroke="#cfd5d1" d="m102.5 131-3 4z" data-index="67"/><path fill="#cfd5d1" stroke="#cfd5d1" d="m57.5 134 2 3z" data-index="68"/><path fill="#cfd5d1" stroke="#cfd5d1" d="m145.5 134-1 2z" data-index="69"/><path fill="#cfd5d1" stroke="#cfd5d1" d="m142.5 136-1 2z" data-index="70"/><path fill="#cfd5d1" stroke="#cfd5d1" d="m96.5 137-1 2z" data-index="71"/><path fill="#cfd5d1" stroke="#cfd5d1" d="m108.5 137 1 2z" data-index="72"/><path fill="#cfd5d1" stroke="#cfd5d1" d="m92.5 140-1 2-1.5-.5z" data-index="73"/><path fill="#cfd5d1" stroke="#cfd5d1" d="m41.5 141 1 2z" data-index="74"/><path fill="#cfd5d1" stroke="#cfd5d1" d="m75.5 144 5.5.5-5.5.5z" data-index="75"/><path fill="#cfd5d1" stroke="#cfd5d1" d="m44.5 145 1 2z" data-index="76"/><path fill="#cfd5d1" stroke="#cfd5d1" d="m47.5 149 4 5z" data-index="77"/><path fill="#cfd5d1" stroke="#cfd5d1" d="m20.5 150 1 2z" data-index="78"/><path fill="#cfd5d1" stroke="#cfd5d1" d="m54.5 155 1 2z" data-index="79"/><path fill="#cfd5d1" stroke="#cfd5d1" d="m27.5 160 2 3z" data-index="80"/><path fill="#cfd5d1" stroke="#cfd5d1" d="m73.5 164 2.5.5-2.5.5z" data-index="81"/><path fill="#cfd5d1" stroke="#cfd5d1" d="m32.5 165 5 6z" data-index="82"/><path fill="#cfd5d1" stroke="#cfd5d1" d="m81.5 165 3.5.5-3.5.5z" data-index="83"/><path fill="#cfd5d1" stroke="#cfd5d1" d="m90.5 165 3.5.5-3.5.5z" data-index="84"/><path fill="#cfd5d1" stroke="#cfd5d1" d="m125.5 172-1 2z" data-index="85"/><path fill="#cfd5d1" stroke="#cfd5d1" d="m42.5 173 1 2z" data-index="86"/><path fill="#cfd5d1" stroke="#cfd5d1" d="m69.5 183 4.5.5-4.5.5z" data-index="87"/><path fill="#cfd5d1" stroke="#cfd5d1" d="m87.5 183 7.5.5-7.5.5z" data-index="88"/><path fill="#cfd5d1" stroke="#cfd5d1" d="m105.5 249 142.5.5-142.5.5z" data-index="89"/><path fill="#fefefe" stroke="#fefefe" d="m89.5 5 2.5.5-2.5.5z" data-index="90"/><path fill="#fefefe" stroke="#fefefe" d="m155.5 22 1 2z" data-index="91"/><path fill="#fefefe" stroke="#fefefe" d="m97.5 23 7.5.5-7.5.5z" data-index="92"/><path fill="#fefefe" stroke="#fefefe" d="m43.5 28-3 4z" data-index="93"/><path fill="#fefefe" stroke="#fefefe" d="m162.5 31 1 2z" data-index="94"/><path fill="#fefefe" stroke="#fefefe" d="m38.5 33-3 4z" data-index="95"/><path fill="#fefefe" stroke="#fefefe" d="m136.5 35 6 7z" data-index="96"/><path fill="#fefefe" stroke="#fefefe" d="m60.5 37-1 2z" data-index="97"/><path fill="#fefefe" stroke="#fefefe" d="m32.5 40-1 2z" data-index="98"/><path fill="#fefefe" stroke="#fefefe" d="m51.5 46-2 3z" data-index="99"/><path fill="#fefefe" stroke="#fefefe" d="m93.5 63 7.5.5-7.5.5z" data-index="100"/><path fill="#fefefe" stroke="#fefefe" d="m108.5 71 .5 2.5h-1z" data-index="101"/><path fill="#fefefe" stroke="#fefefe" d="m34.5 82 .5 2.5h-1z" data-index="102"/><path fill="#fefefe" stroke="#fefefe" d="m131.5 84 .5 3.5h-1z" data-index="103"/><path fill="#fefefe" stroke="#fefefe" d="m173.5 86 .5 2.5h-1z" data-index="104"/><path fill="#fefefe" stroke="#fefefe" d="m11.5 87 .5 4.5h-1z" data-index="105"/><path fill="#fefefe" stroke="#fefefe" d="m49.5 91 .5 3.5h-1z" data-index="106"/><path fill="#fefefe" stroke="#fefefe" d="m98.5 107-1 2z" data-index="107"/><path fill="#fefefe" stroke="#fefefe" d="m143.5 112-1 2z" data-index="108"/><path fill="#fefefe" stroke="#fefefe" d="m49.5 115 .5 2.5h-1z" data-index="109"/><path fill="#fefefe" stroke="#fefefe" d="m128.5 115 1.5 8.5-2-1z" data-index="110"/><path fill="#fefefe" stroke="#fefefe" d="m163.5 115-1 2z" data-index="111"/><path fill="#fefefe" stroke="#fefefe" d="m140.5 116-3 4z" data-index="112"/><path fill="#fefefe" stroke="#fefefe" d="m91.5 118-3 4z" data-index="113"/><path fill="#fefefe" stroke="#fefefe" d="m34.5 119 .5 3.5h-1z" data-index="114"/><path fill="#fefefe" stroke="#fefefe" d="m11.5 121 .5 3.5h-1z" data-index="115"/><path fill="#fefefe" stroke="#fefefe" d="m104.5 129 1 2-2.5-.5z" data-index="116"/><path fill="#fefefe" stroke="#fefefe" d="m55.5 132 1 2z" data-index="117"/><path fill="#fefefe" stroke="#fefefe" d="m147.5 133-1 2z" data-index="118"/><path fill="#fefefe" stroke="#fefefe" d="m100.5 134-3 4z" data-index="119"/><path fill="#fefefe" stroke="#fefefe" d="m59.5 137 2 3z" data-index="120"/><path fill="#fefefe" stroke="#fefefe" d="m109.5 139 1 2z" data-index="121"/><path fill="#fefefe" stroke="#fefefe" d="m63.5 140 1 2z" data-index="122"/><path fill="#fefefe" stroke="#fefefe" d="m72.5 144 2.5.5-2.5.5z" data-index="123"/><path fill="#fefefe" stroke="#fefefe" d="m81.5 144 3.5.5-3.5.5z" data-index="124"/><path fill="#fefefe" stroke="#fefefe" d="m120.5 144 5.5.5-5.5.5z" data-index="125"/><path fill="#fefefe" stroke="#fefefe" d="m169.5 150 36.5.5-36.5.5z" data-index="126"/><path fill="#fefefe" stroke="#fefefe" d="m52.5 153 1 2z" data-index="127"/><path fill="#fefefe" stroke="#fefefe" d="m25.5 158 1 2z" data-index="128"/><path fill="#fefefe" stroke="#fefefe" d="m29.5 163 3 4z" data-index="129"/><path fill="#fefefe" stroke="#fefefe" d="m71.5 163 2.5.5-2.5.5z" data-index="130"/><path fill="#fefefe" stroke="#fefefe" d="m102.5 163 2.5.5-2.5.5z" data-index="131"/><path fill="#fefefe" stroke="#fefefe" d="m66.5 183 2.5.5-2.5.5z" data-index="132"/><path fill="#fefefe" stroke="#fefefe" d="m70.5 190 32.5.5-32.5.5z" data-index="133"/><path fill="#fefefe" stroke="#fefefe" d="m67.5 193 .5 84.5h-1z" data-index="134"/><path fill="#fefefe" stroke="#fefefe" d="m209.5 214 32.5.5-32.5.5z" data-index="135"/><path fill="#fefefe" stroke="#fefefe" d="m249.5 251 .5 26.5h-1z" data-index="136"/><path fill="#5a5d6d" stroke="#5a5d6d" d="m95.5 5 3.5.5-3.5.5z" data-index="137"/><path fill="#5a5d6d" stroke="#5a5d6d" d="m113.5 5 2.5.5-2.5.5z" data-index="138"/><path fill="#5a5d6d" stroke="#5a5d6d" d="m143.5 14 1 2z" data-index="139"/><path fill="#5a5d6d" stroke="#5a5d6d" d="m148.5 17 3 4z" data-index="140"/><path fill="#5a5d6d" stroke="#5a5d6d" d="m209.5 18 32.5.5-33 .5-.5 36-.5-35.5z" data-index="141"/><path fill="#5a5d6d" stroke="#5a5d6d" d="m243.5 20 .5 191.5h-1z" data-index="142"/><path fill="#5a5d6d" stroke="#5a5d6d" d="m53.5 21-1 2z" data-index="143"/><path fill="#5a5d6d" stroke="#5a5d6d" d="m95.5 22 10.5.5-10.5.5z" data-index="144"/><path fill="#5a5d6d" stroke="#5a5d6d" d="m154.5 22 2 3z" data-index="145"/><path fill="#5a5d6d" stroke="#5a5d6d" d="m90.5 23 2.5.5-2.5.5z" data-index="146"/><path fill="#5a5d6d" stroke="#5a5d6d" d="m108.5 23 2.5.5-2.5.5z" data-index="147"/><path fill="#5a5d6d" stroke="#5a5d6d" d="m49.5 24-1 2z" data-index="148"/><path fill="#5a5d6d" stroke="#5a5d6d" d="m80.5 25 2.5.5-2.5.5z" data-index="149"/><path fill="#5a5d6d" stroke="#5a5d6d" d="m45.5 27-9 10z" data-index="150"/><path fill="#5a5d6d" stroke="#5a5d6d" d="m159.5 28 1 2z" data-index="151"/><path fill="#5a5d6d" stroke="#5a5d6d" d="m136.5 34 7 8z" data-index="152"/><path fill="#5a5d6d" stroke="#5a5d6d" d="m163.5 34 1 2z" data-index="153"/><path fill="#5a5d6d" stroke="#5a5d6d" d="m60.5 36-1 2z" data-index="154"/><path fill="#5a5d6d" stroke="#5a5d6d" d="m33.5 40-1 2z" data-index="155"/><path fill="#5a5d6d" stroke="#5a5d6d" d="m30.5 44-1 2z" data-index="156"/><path fill="#5a5d6d" stroke="#5a5d6d" d="m145.5 44 1 2z" data-index="157"/><path fill="#5a5d6d" stroke="#5a5d6d" d="m51.5 45-3 4z" data-index="158"/><path fill="#5a5d6d" stroke="#5a5d6d" d="m28.5 47-1 2z" data-index="159"/><path fill="#5a5d6d" stroke="#5a5d6d" d="m90.5 47 2.5.5-2.5.5z" data-index="160"/><path fill="#5a5d6d" stroke="#5a5d6d" d="m103.5 47 3.5.5-3.5.5z" data-index="161"/><path fill="#5a5d6d" stroke="#5a5d6d" d="m133.5 48 2 3z" data-index="162"/><path fill="#5a5d6d" stroke="#5a5d6d" d="m122.5 49-1 2-3.5-.5z" data-index="163"/><path fill="#5a5d6d" stroke="#5a5d6d" d="m25.5 52-1 2z" data-index="164"/><path fill="#5a5d6d" stroke="#5a5d6d" d="m135.5 52 .5 3.5h-1z" data-index="165"/><path fill="#5a5d6d" stroke="#5a5d6d" d="m74.5 53-1 2z" data-index="166"/><path fill="#5a5d6d" stroke="#5a5d6d" d="m71.5 55-2 3z" data-index="167"/><path fill="#5a5d6d" stroke="#5a5d6d" d="m43.5 56-.5 1.5-1.5 2.5.5-1.5z" data-index="168"/><path fill="#5a5d6d" stroke="#5a5d6d" d="m152.5 59 .5 2.5h-1z" data-index="169"/><path fill="#5a5d6d" stroke="#5a5d6d" d="m95.5 62 3.5.5-3.5.5z" data-index="170"/><path fill="#5a5d6d" stroke="#5a5d6d" d="m63.5 63-2 3z" data-index="171"/><path fill="#5a5d6d" stroke="#5a5d6d" d="m86.5 65-1 2z" data-index="172"/><path fill="#5a5d6d" stroke="#5a5d6d" d="m133.5 65 .5 2.5h-1z" data-index="173"/><path fill="#5a5d6d" stroke="#5a5d6d" d="m83.5 68-3 4z" data-index="174"/><path fill="#5a5d6d" stroke="#5a5d6d" d="m132.5 70 .5 4.5h-1z" data-index="175"/><path fill="#5a5d6d" stroke="#5a5d6d" d="m56.5 74-1 2z" data-index="176"/><path fill="#5a5d6d" stroke="#5a5d6d" d="m131.5 77 .5 3.5h-1z" data-index="177"/><path fill="#5a5d6d" stroke="#5a5d6d" d="m14.5 78 .5 2.5h-1z" data-index="178"/><path fill="#5a5d6d" stroke="#5a5d6d" d="m107.5 81 .5 2.5h-1z" data-index="179"/><path fill="#5a5d6d" stroke="#5a5d6d" d="m52.5 83 .5 2.5h-1z" data-index="180"/><path fill="#5a5d6d" stroke="#5a5d6d" d="m130.5 85 .5 2.5h-1z" data-index="181"/><path fill="#5a5d6d" stroke="#5a5d6d" d="m208.5 85 .5 35.5h-1z" data-index="182"/><path fill="#5a5d6d" stroke="#5a5d6d" d="m12.5 87 .5 2.5h-1z" data-index="183"/><path fill="#5a5d6d" stroke="#5a5d6d" d="m153.5 88 .5 2.5h-1z" data-index="184"/><path fill="#5a5d6d" stroke="#5a5d6d" d="m32.5 89 .5 5.5h-1z" data-index="185"/><path fill="#5a5d6d" stroke="#5a5d6d" d="m73.5 89 .5 2.5h-1z" data-index="186"/><path fill="#5a5d6d" stroke="#5a5d6d" d="m129.5 92 .5 4.5h-1z" data-index="187"/><path fill="#5a5d6d" stroke="#5a5d6d" d="m11.5 97 .5 7.5h-1z" data-index="188"/><path fill="#5a5d6d" stroke="#5a5d6d" d="m72.5 99 .5 4.5h-1z" data-index="189"/><path fill="#5a5d6d" stroke="#5a5d6d" d="m128.5 99 .5 5.5h-1z" data-index="190"/><path fill="#5a5d6d" stroke="#5a5d6d" d="m49.5 100 .5 8.5h-1z" data-index="191"/><path fill="#5a5d6d" stroke="#5a5d6d" d="m31.5 101 .5 3.5h-1z" data-index="192"/><path fill="#5a5d6d" stroke="#5a5d6d" d="m11.5 109 .5 6.5h-1z" data-index="193"/><path fill="#5a5d6d" stroke="#5a5d6d" d="m32.5 109 .5 5.5h-1z" data-index="194"/><path fill="#5a5d6d" stroke="#5a5d6d" d="m146.5 109-1 2z" data-index="195"/><path fill="#5a5d6d" stroke="#5a5d6d" d="m73.5 110 .5 2.5h-1z" data-index="196"/><path fill="#5a5d6d" stroke="#5a5d6d" d="m144.5 112-1 2z" data-index="197"/><path fill="#5a5d6d" stroke="#5a5d6d" d="m127.5 113 .5 8.5h-1z" data-index="198"/><path fill="#5a5d6d" stroke="#5a5d6d" d="m95.5 114-1 2z" data-index="199"/><path fill="#5a5d6d" stroke="#5a5d6d" d="m162.5 115-1 2z" data-index="200"/><path fill="#5a5d6d" stroke="#5a5d6d" d="m141.5 116-5 6z" data-index="201"/><path fill="#5a5d6d" stroke="#5a5d6d" d="m93.5 117-4 5z" data-index="202"/><path fill="#5a5d6d" stroke="#5a5d6d" d="m160.5 118-1 2z" data-index="203"/><path fill="#5a5d6d" stroke="#5a5d6d" d="m76.5 119 1 2z" data-index="204"/><path fill="#5a5d6d" stroke="#5a5d6d" d="m158.5 121-2 3z" data-index="205"/><path fill="#5a5d6d" stroke="#5a5d6d" d="m12.5 122 .5 2.5h-1z" data-index="206"/><path fill="#5a5d6d" stroke="#5a5d6d" d="m134.5 122-1 2-1.5-.5z" data-index="207"/><path fill="#5a5d6d" stroke="#5a5d6d" d="m128.5 123 2.5 1.5-1.5.5z" data-index="208"/><path fill="#5a5d6d" stroke="#5a5d6d" d="m104.5 127 1.5.5-2.5 1.5z" data-index="209"/><path fill="#5a5d6d" stroke="#5a5d6d" d="m13.5 128 .5 2.5h-1z" data-index="210"/><path fill="#5a5d6d" stroke="#5a5d6d" d="m102.5 130-1 2z" data-index="211"/><path fill="#5a5d6d" stroke="#5a5d6d" d="m56.5 132 1 2z" data-index="212"/><path fill="#5a5d6d" stroke="#5a5d6d" d="m98.5 135-1 2z" data-index="213"/><path fill="#5a5d6d" stroke="#5a5d6d" d="m60.5 137 1 2z" data-index="214"/><path fill="#5a5d6d" stroke="#5a5d6d" d="m140.5 137-1 2z" data-index="215"/><path fill="#5a5d6d" stroke="#5a5d6d" d="m94.5 138-1 2z" data-index="216"/><path fill="#5a5d6d" stroke="#5a5d6d" d="m63.5 139 1 2z" data-index="217"/><path fill="#5a5d6d" stroke="#5a5d6d" d="m110.5 139 1 2z" data-index="218"/><path fill="#5a5d6d" stroke="#5a5d6d" d="m42.5 143 1 2z" data-index="219"/><path fill="#5a5d6d" stroke="#5a5d6d" d="m119.5 143 7.5.5-7.5.5z" data-index="220"/><path fill="#5a5d6d" stroke="#5a5d6d" d="m45.5 147 1 2z" data-index="221"/><path fill="#5a5d6d" stroke="#5a5d6d" d="m20.5 149 1 2z" data-index="222"/><path fill="#5a5d6d" stroke="#5a5d6d" d="m208.5 150 .5 62.5h-1z" data-index="223"/><path fill="#5a5d6d" stroke="#5a5d6d" d="m23.5 154 1 2z" data-index="224"/><path fill="#5a5d6d" stroke="#5a5d6d" d="m52.5 154 2 3z" data-index="225"/><path fill="#5a5d6d" stroke="#5a5d6d" d="m25.5 157 3 4z" data-index="226"/><path fill="#5a5d6d" stroke="#5a5d6d" d="m56.5 157 1 2z" data-index="227"/><path fill="#5a5d6d" stroke="#5a5d6d" d="m122.5 157 1 2z" data-index="228"/><path fill="#5a5d6d" stroke="#5a5d6d" d="m119.5 158-1 2-1.5-.5z" data-index="229"/><path fill="#5a5d6d" stroke="#5a5d6d" d="m30.5 163 1 2z" data-index="230"/><path fill="#5a5d6d" stroke="#5a5d6d" d="m102.5 164 2.5.5-2.5.5z" data-index="231"/><path fill="#5a5d6d" stroke="#5a5d6d" d="m77.5 165 3.5.5-3.5.5z" data-index="232"/><path fill="#5a5d6d" stroke="#5a5d6d" d="m94.5 165 3.5.5-3.5.5z" data-index="233"/><path fill="#5a5d6d" stroke="#5a5d6d" d="m83.5 166 8.5.5-8.5.5z" data-index="234"/><path fill="#5a5d6d" stroke="#5a5d6d" d="m36.5 168 3 4z" data-index="235"/><path fill="#5a5d6d" stroke="#5a5d6d" d="m128.5 168 .5 1.5-3 2z" data-index="236"/><path fill="#5a5d6d" stroke="#5a5d6d" d="m124.5 172-1 2z" data-index="237"/><path fill="#5a5d6d" stroke="#5a5d6d" d="m104.5 180 2.5.5-2.5.5z" data-index="238"/><path fill="#5a5d6d" stroke="#5a5d6d" d="m100.5 181 2.5.5-2.5.5z" data-index="239"/><path fill="#5a5d6d" stroke="#5a5d6d" d="m74.5 183 12.5.5-12.5.5z" data-index="240"/><path fill="#5a5d6d" stroke="#5a5d6d" d="m69.5 191-.5 1.5V279h179l.5-29 .5 28.5-1.5 1.5h-178l-1.5-1.5v-86z" data-index="241"/><path fill="#5a5d6d" stroke="#5a5d6d" d="m103.5 191 .5 57.5 1 1-2-1z" data-index="242"/><path fill="#1f2937" stroke="#1f2937" d="M99.5 5h13l22 5q14.9 6.1 24.5 17.5l10 17 3 11.5h35.5l1.5-1.5V19h34v193.5l-1.5 1.5H209v-64h-39v-28h37.5l1.5-1.5v-35l-1.5-1.5h-34l-.5 2.5q-5.8 30.2-25.5 46.5l-13 8q-6.1 3.4-17 2-5.7-1.2-8.5-5.5l-3-10.5-3 1.5-7.5 9.5-12 6h-10q-10.1-2.4-15.5-9.5l-4-6-4-13v-21q2.3-1.2 1-6l7-18L68.5 58q7.7-6.8 19-10l15-1 19 4 8-5 6.5 5.5-4 19-3 28-1 1-1 22 2.5 3.5q8.3-2.1 12.5-8.5l9-15 3-11v-26q-3.8-20.2-17.5-30.5l-17-9-14-3h-10l-15 3-11 5Q56.8 37.3 48 48.5l-6 9-7 17-3 15-1 15 1 1 1 15 4 14q6.4 13.6 17.5 22.5l13 7 16 3h8l7-2h6l18-7 5.5 11.5-13.5 8.5-19 5h-27q-25.8-4.7-39.5-21.5-8.3-9.2-13-22l-4-18-1-16 1-1 1-20 6-20Q29.2 41.2 47.5 26l21-13 18-6 12-1zM96 62l-9 3q-9 6-12 17l-2 8v9l-1 1 2 16 7 8q6 1 9-2l6-7 9-20 4-16 1-13q-5-4-14-4Z" data-index="243" style="opacity:1"/><path fill="#1f2937" stroke="#1f2937" d="M70.5 191H103v57.5l1.5 1.5H248v28.5l-.5.5H69v-86.5z" data-index="244" style="opacity:1"/></svg>